<svg xmlns="http://www.w3.org/2000/svg" width="161" height="170" viewBox="0 0 160.6 169.9"><style>.a{fill:#703895;}.b{fill:#DAE251;}</style><path d="M105.4 3c1 1.5 1.4 3.5 0.9 5.4 -0.6 2.3-2.8 4.4-5.2 4.9 -2.7 0.4-5.3-0.6-6.9-2.9 -1-1.5-1.3-3.5-0.9-5.4 0.6-2.3 2.8-4.4 5.2-4.9C101.3-0.3 103.9 0.7 105.4 3" class="a"/><path d="M118.8 7.4c1 1.5 1.3 3.5 0.9 5.4 -0.6 2.3-2.8 4.4-5.2 4.9 -2.7 0.4-5.3-0.6-6.9-2.9 -1-1.5-1.3-3.5-0.9-5.4 0.6-2.3 2.8-4.4 5.2-4.9C114.7 4.1 117.2 5 118.8 7.4" class="b"/><path d="M74.1 7.7c1 1.5 1.3 3.5 0.9 5.4 -0.6 2.3-2.8 4.4-5.2 4.9 -2.7 0.4-5.3-0.5-6.9-2.9 -1-1.5-1.3-3.5-0.9-5.4 0.6-2.3 2.8-4.4 5.2-4.9C70 4.4 72.6 5.3 74.1 7.7" class="a"/><path d="M132.3 11.8c1 1.5 1.3 3.5 0.9 5.4 -0.6 2.4-2.8 4.4-5.2 4.9 -2.7 0.4-5.3-0.6-6.9-2.9 -1-1.5-1.3-3.5-0.9-5.4 0.6-2.4 2.8-4.4 5.2-4.9C128.2 8.5 130.7 9.5 132.3 11.8" class="b"/><path d="M87.6 12.1c1 1.5 1.3 3.5 0.9 5.4 -0.6 2.4-2.8 4.4-5.2 4.9 -2.7 0.4-5.3-0.6-6.9-2.9 -1-1.5-1.3-3.5-0.9-5.4 0.6-2.4 2.8-4.4 5.2-4.9C83.5 8.8 86.1 9.8 87.6 12.1" class="a"/><path d="M42.9 12.4c1 1.5 1.3 3.5 0.9 5.4 -0.6 2.3-2.8 4.4-5.2 4.9 -2.7 0.4-5.3-0.6-6.9-2.9 -1-1.5-1.3-3.5-0.9-5.4 0.6-2.3 2.8-4.4 5.2-4.9C38.7 9.1 41.3 10 42.9 12.4" class="a"/><path d="M101 16.5c1 1.5 1.3 3.5 0.9 5.4 -0.6 2.3-2.8 4.4-5.2 4.9 -2.7 0.4-5.3-0.6-6.9-2.9 -1-1.5-1.4-3.5-0.9-5.4 0.6-2.3 2.8-4.4 5.2-4.9C96.9 13.2 99.5 14.2 101 16.5" class="a"/><path d="M56.4 16.8c1 1.5 1.3 3.5 0.9 5.4 -0.6 2.4-2.8 4.4-5.2 4.9 -2.7 0.4-5.3-0.6-6.9-2.9 -1-1.5-1.3-3.5-0.9-5.4 0.6-2.4 2.8-4.4 5.2-4.9C52.2 13.5 54.8 14.5 56.4 16.8" class="b"/><path d="M159.2 20.5c1.1 1.5 1.4 3.5 0.9 5.4 -0.6 2.3-2.8 4.4-5.2 4.9 -2.7 0.4-5.3-0.6-6.9-2.9 -1.1-1.5-1.4-3.5-0.9-5.4 0.6-2.3 2.8-4.4 5.2-4.9C155.1 17.2 157.6 18.2 159.2 20.5" class="b"/><path d="M114.4 20.8c1 1.5 1.4 3.5 0.9 5.4 -0.6 2.4-2.8 4.4-5.2 4.9 -2.7 0.4-5.3-0.6-6.9-2.9 -1-1.5-1.3-3.5-0.9-5.4 0.6-2.4 2.8-4.4 5.2-4.9C110.2 17.5 112.9 18.5 114.4 20.8" class="b"/><path d="M69.7 21.2c1.1 1.5 1.4 3.5 0.9 5.4 -0.6 2.3-2.8 4.4-5.2 4.9 -2.7 0.4-5.3-0.5-6.9-2.9 -1.1-1.5-1.4-3.5-0.9-5.4 0.6-2.3 2.8-4.4 5.2-4.9C65.6 17.9 68.2 18.8 69.7 21.2" class="a"/><path d="M127.9 25.2c1 1.5 1.4 3.5 0.9 5.4 -0.6 2.3-2.8 4.4-5.2 4.9 -2.7 0.4-5.3-0.5-6.9-2.9 -1-1.5-1.3-3.5-0.9-5.4 0.6-2.3 2.8-4.4 5.2-4.9C123.7 21.9 126.4 22.8 127.9 25.2" class="a"/><path d="M83.2 25.5c1.1 1.5 1.4 3.5 0.9 5.4 -0.6 2.3-2.8 4.4-5.2 4.9 -2.7 0.4-5.3-0.6-6.9-2.9 -1.1-1.5-1.4-3.5-0.9-5.4 0.6-2.3 2.8-4.4 5.2-4.9C79.1 22.2 81.7 23.2 83.2 25.5" class="a"/><path d="M38.6 25.9c1 1.5 1.3 3.5 0.9 5.4 -0.6 2.3-2.8 4.4-5.2 4.9 -2.7 0.4-5.4-0.6-6.9-2.9 -1-1.5-1.3-3.5-0.9-5.4 0.6-2.3 2.8-4.4 5.2-4.9C34.4 22.6 37 23.5 38.6 25.9" class="a"/><path d="M141.3 29.6c1 1.5 1.3 3.5 0.9 5.4 -0.6 2.4-2.8 4.4-5.2 4.9 -2.7 0.4-5.3-0.6-6.9-2.9 -1-1.5-1.3-3.5-0.9-5.4 0.6-2.4 2.8-4.4 5.2-4.9C137.1 26.3 139.7 27.2 141.3 29.6" class="b"/><path d="M96.6 29.9c1 1.5 1.3 3.5 0.9 5.4 -0.6 2.3-2.8 4.4-5.2 4.9 -2.7 0.4-5.3-0.6-6.9-2.9 -1-1.5-1.3-3.5-0.9-5.4 0.6-2.3 2.8-4.4 5.2-4.9C92.5 26.6 95.1 27.5 96.6 29.9" class="a"/><path d="M52 30.2c1.1 1.5 1.4 3.5 0.9 5.4 -0.6 2.3-2.8 4.4-5.2 4.9 -2.7 0.4-5.3-0.5-6.9-2.9 -1.1-1.5-1.4-3.5-0.9-5.4 0.6-2.3 2.8-4.4 5.2-4.9C47.8 26.9 50.4 27.8 52 30.2" class="a"/><path d="M154.8 33.9c1 1.5 1.3 3.5 0.9 5.4 -0.6 2.3-2.8 4.4-5.2 4.9 -2.7 0.4-5.3-0.6-6.9-2.9 -1-1.5-1.3-3.5-0.9-5.4 0.6-2.3 2.8-4.4 5.2-4.9C150.6 30.7 153.2 31.7 154.8 33.9" class="b"/><path d="M110.1 34.3c1 1.5 1.3 3.5 0.9 5.4 -0.6 2.4-2.8 4.4-5.2 4.9 -2.7 0.4-5.3-0.6-6.9-2.9 -1-1.5-1.3-3.5-0.9-5.4 0.6-2.4 2.8-4.4 5.2-4.9C106 30.9 108.6 31.9 110.1 34.3" class="b"/><path d="M65.4 34.6c1 1.5 1.4 3.5 0.9 5.4 -0.6 2.4-2.8 4.4-5.2 4.9 -2.7 0.4-5.3-0.6-6.9-2.9 -1.1-1.5-1.4-3.5-0.9-5.4 0.6-2.4 2.8-4.4 5.2-4.9C61.3 31.3 63.9 32.2 65.4 34.6" class="a"/><path d="M123.5 38.7c1 1.5 1.3 3.5 0.9 5.4 -0.6 2.3-2.8 4.4-5.2 4.9 -2.7 0.4-5.3-0.5-6.9-2.9 -1-1.5-1.4-3.5-0.9-5.4 0.6-2.3 2.8-4.4 5.2-4.9C119.4 35.4 122 36.3 123.5 38.7" class="b"/><path d="M78.9 38.9c1 1.5 1.3 3.5 0.9 5.4 -0.6 2.3-2.8 4.4-5.2 4.9 -2.7 0.4-5.3-0.6-6.9-2.9 -1-1.5-1.3-3.5-0.9-5.4 0.6-2.3 2.8-4.4 5.2-4.9C74.7 35.7 77.3 36.7 78.9 38.9" class="b"/><path d="M137 42.9c1 1.5 1.3 3.5 0.9 5.4 -0.6 2.3-2.8 4.4-5.2 4.9 -2.7 0.4-5.3-0.6-6.9-2.9 -1-1.5-1.4-3.5-0.9-5.4 0.6-2.3 2.8-4.4 5.2-4.9C132.9 39.6 135.4 40.7 137 42.9" class="b"/><path d="M92.3 43.4c1 1.5 1.3 3.5 0.9 5.4 -0.6 2.3-2.8 4.4-5.2 4.9 -2.7 0.4-5.3-0.6-6.9-2.9 -1-1.5-1.3-3.5-0.9-5.4 0.6-2.3 2.8-4.4 5.2-4.9C88.2 40.1 90.8 41 92.3 43.4" class="a"/><path d="M47.6 43.6c1 1.5 1.3 3.5 0.9 5.4 -0.6 2.3-2.8 4.4-5.2 4.9 -2.7 0.4-5.4-0.5-6.9-2.9 -1-1.5-1.3-3.5-0.9-5.4 0.6-2.3 2.8-4.4 5.2-4.9C43.4 40.4 46 41.3 47.6 43.6" class="a"/><path d="M150.4 47.4c1 1.5 1.4 3.5 0.9 5.4 -0.6 2.3-2.8 4.4-5.2 4.9 -2.7 0.4-5.3-0.6-6.9-2.9 -1-1.5-1.3-3.5-0.9-5.4 0.6-2.3 2.8-4.4 5.2-4.9C146.2 44.1 148.9 45 150.4 47.4" class="a"/><path d="M105.7 47.6c1.1 1.5 1.4 3.5 0.9 5.4 -0.6 2.3-2.8 4.4-5.2 4.9 -2.7 0.4-5.3-0.5-6.9-2.9 -1.1-1.5-1.4-3.5-0.9-5.4 0.6-2.3 2.8-4.4 5.2-4.9C101.6 44.4 104.2 45.3 105.7 47.6" class="a"/><path d="M61.1 48.1c1 1.5 1.3 3.5 0.9 5.4 -0.6 2.4-2.8 4.4-5.2 4.9 -2.7 0.4-5.4-0.6-6.9-2.9 -1-1.5-1.3-3.5-0.9-5.4 0.6-2.4 2.8-4.4 5.2-4.9C56.9 44.8 59.5 45.7 61.1 48.1" class="a"/><path d="M119.1 52.1c1 1.5 1.3 3.5 0.9 5.4 -0.6 2.4-2.8 4.4-5.2 4.9 -2.7 0.4-5.3-0.6-6.9-2.9 -1-1.5-1.3-3.5-0.9-5.4 0.6-2.4 2.8-4.4 5.2-4.9C115 48.8 117.6 49.7 119.1 52.1" class="b"/><path d="M74.4 52.3c1 1.5 1.4 3.5 0.9 5.4 -0.6 2.3-2.8 4.4-5.2 4.9 -2.7 0.4-5.3-0.6-6.9-2.9 -1-1.5-1.3-3.5-0.9-5.4 0.6-2.3 2.8-4.4 5.2-4.9C70.3 49.1 72.9 50 74.4 52.3" class="a"/><path d="M132.6 56.4c1 1.5 1.3 3.5 0.9 5.4 -0.6 2.3-2.8 4.4-5.2 4.9 -2.7 0.4-5.3-0.6-6.9-2.9 -1-1.5-1.3-3.5-0.9-5.4 0.6-2.3 2.8-4.4 5.2-4.9C128.4 53.1 131.1 54.1 132.6 56.4" class="b"/><path d="M87.9 56.8c1 1.5 1.4 3.5 0.9 5.4 -0.6 2.4-2.8 4.4-5.2 4.9 -2.7 0.4-5.3-0.6-6.9-2.9 -1-1.5-1.3-3.5-0.9-5.4 0.6-2.4 2.8-4.4 5.2-4.9C83.8 53.4 86.4 54.4 87.9 56.8" class="a"/><path d="M43.3 57.1c1 1.5 1.3 3.5 0.9 5.4 -0.6 2.4-2.8 4.4-5.2 4.9 -2.7 0.4-5.3-0.6-6.9-2.9 -1-1.5-1.4-3.5-0.9-5.4 0.6-2.4 2.8-4.4 5.2-4.9C39.1 53.8 41.7 54.7 43.3 57.1" class="a"/><path d="M146 60.8c1 1.5 1.3 3.5 0.9 5.4 -0.6 2.3-2.8 4.4-5.2 4.9 -2.7 0.4-5.3-0.6-6.9-2.9 -1-1.5-1.4-3.5-0.9-5.4 0.6-2.3 2.8-4.4 5.2-4.9C141.9 57.6 144.4 58.5 146 60.8" class="b"/><path d="M101.3 61.1c1 1.5 1.3 3.5 0.9 5.4 -0.6 2.3-2.8 4.4-5.2 4.9 -2.7 0.4-5.3-0.5-6.9-2.9 -1-1.5-1.3-3.5-0.9-5.4 0.6-2.3 2.8-4.4 5.2-4.9C97.2 57.8 99.8 58.8 101.3 61.1" class="a"/><path d="M56.7 61.4c1 1.5 1.3 3.5 0.9 5.4 -0.6 2.3-2.8 4.4-5.2 4.9 -2.7 0.4-5.3-0.6-6.9-2.9 -1-1.5-1.3-3.5-0.9-5.4 0.6-2.3 2.8-4.4 5.2-4.9C52.5 58.1 55.1 59.1 56.7 61.4" class="a"/><path d="M159.5 65.1c1 1.5 1.3 3.5 0.9 5.4 -0.6 2.3-2.8 4.4-5.2 4.9 -2.7 0.4-5.3-0.5-6.9-2.9 -1-1.5-1.4-3.5-0.9-5.4 0.6-2.3 2.8-4.4 5.2-4.9C155.3 61.8 157.9 62.8 159.5 65.1" class="b"/><path d="M114.8 65.5c1 1.5 1.3 3.5 0.9 5.4 -0.6 2.4-2.8 4.4-5.2 4.9 -2.7 0.4-5.3-0.6-6.9-2.9 -1-1.5-1.3-3.5-0.9-5.4 0.6-2.4 2.8-4.4 5.2-4.9C110.7 62.3 113.2 63.2 114.8 65.5" class="b"/><path d="M70.1 65.8c1 1.5 1.3 3.5 0.9 5.4 -0.6 2.3-2.8 4.4-5.2 4.9 -2.7 0.4-5.3-0.6-6.9-2.9 -1-1.5-1.3-3.5-0.9-5.4 0.6-2.3 2.8-4.4 5.2-4.9C66 62.6 68.6 63.5 70.1 65.8" class="a"/><path d="M25.4 66.1c1 1.5 1.3 3.5 0.9 5.4 -0.6 2.3-2.8 4.4-5.2 4.9 -2.7 0.4-5.3-0.5-6.9-2.9 -1-1.5-1.3-3.5-0.9-5.4 0.6-2.3 2.8-4.4 5.2-4.9C21.2 62.8 23.8 63.8 25.4 66.1" class="a"/><path d="M128.2 69.8c1.1 1.5 1.4 3.5 0.9 5.4 -0.6 2.3-2.8 4.4-5.2 4.9 -2.7 0.4-5.3-0.6-6.9-2.9 -1.1-1.5-1.4-3.5-0.9-5.4 0.6-2.3 2.8-4.4 5.2-4.9C124.1 66.5 126.7 67.5 128.2 69.8" class="b"/><path d="M83.6 70.3c1 1.5 1.3 3.5 0.9 5.4 -0.6 2.4-2.8 4.4-5.2 4.9 -2.7 0.4-5.3-0.6-6.9-2.9 -1-1.5-1.4-3.5-0.9-5.4 0.6-2.4 2.8-4.4 5.2-4.9C79.4 66.9 82 67.9 83.6 70.3" class="a"/><path d="M38.9 70.5c1 1.5 1.3 3.5 0.9 5.4 -0.6 2.4-2.8 4.4-5.2 4.9 -2.7 0.4-5.3-0.6-6.9-2.9 -1-1.5-1.3-3.5-0.9-5.4 0.6-2.4 2.8-4.4 5.2-4.9C34.7 67.3 37.3 68.2 38.9 70.5" class="a"/><path d="M141.7 74.3c1.1 1.5 1.4 3.5 0.9 5.4 -0.6 2.4-2.8 4.4-5.2 4.9 -2.7 0.4-5.3-0.6-6.9-2.9 -1.1-1.5-1.4-3.5-0.9-5.4 0.6-2.4 2.8-4.4 5.2-4.9C137.6 70.9 140.1 71.9 141.7 74.3" class="a"/><path d="M97 74.5c1 1.5 1.3 3.5 0.9 5.4 -0.6 2.4-2.8 4.4-5.2 4.9 -2.7 0.4-5.3-0.6-6.9-2.9 -1-1.5-1.4-3.5-0.9-5.4 0.6-2.4 2.8-4.4 5.2-4.9C92.9 71.3 95.5 72.2 97 74.5" class="b"/><path d="M52.3 74.9c1 1.5 1.3 3.5 0.9 5.4 -0.6 2.3-2.8 4.4-5.2 4.9 -2.7 0.4-5.3-0.6-6.9-2.9 -1-1.5-1.4-3.5-0.9-5.4 0.6-2.3 2.8-4.4 5.2-4.9C48.1 71.6 50.7 72.6 52.3 74.9" class="b"/><path d="M155.1 78.6c1 1.5 1.3 3.5 0.9 5.4 -0.6 2.3-2.8 4.4-5.2 4.9 -2.7 0.4-5.3-0.5-6.9-2.9 -1-1.5-1.3-3.5-0.9-5.4 0.6-2.3 2.8-4.4 5.2-4.9C150.9 75.3 153.6 76.3 155.1 78.6" class="a"/><path d="M110.4 78.9c1 1.5 1.4 3.5 0.9 5.4 -0.6 2.3-2.8 4.4-5.2 4.9 -2.7 0.4-5.3-0.6-6.9-2.9 -1-1.5-1.3-3.5-0.9-5.4 0.6-2.3 2.8-4.4 5.2-4.9C106.3 75.6 108.9 76.6 110.4 78.9" class="a"/><path d="M65.7 79.2c1.1 1.5 1.4 3.5 0.9 5.4 -0.6 2.4-2.8 4.4-5.2 4.9 -2.7 0.4-5.3-0.6-6.9-2.9 -1-1.5-1.4-3.5-0.9-5.4 0.6-2.4 2.8-4.4 5.2-4.9C61.6 75.9 64.2 76.9 65.7 79.2" class="b"/><path d="M21.1 79.6c1 1.5 1.3 3.5 0.9 5.4 -0.6 2.3-2.8 4.4-5.2 4.9 -2.7 0.4-5.4-0.5-6.9-2.9 -1-1.5-1.3-3.5-0.9-5.4 0.6-2.3 2.8-4.4 5.2-4.9C16.9 76.3 19.5 77.3 21.1 79.6" class="b"/><path d="M123.8 83.3c1 1.5 1.3 3.5 0.9 5.4 -0.6 2.3-2.8 4.4-5.2 4.9 -2.7 0.4-5.3-0.6-6.9-2.9 -1-1.5-1.3-3.5-0.9-5.4 0.6-2.3 2.8-4.4 5.2-4.9C119.7 80 122.2 81 123.8 83.3" class="a"/><path d="M79.1 83.6c1 1.5 1.3 3.5 0.9 5.4 -0.6 2.3-2.8 4.4-5.2 4.9 -2.7 0.4-5.3-0.5-6.9-2.9 -1-1.5-1.3-3.5-0.9-5.4 0.6-2.3 2.8-4.4 5.2-4.9C75 80.3 77.6 81.3 79.1 83.6" class="b"/><path d="M34.5 83.9c1.1 1.5 1.4 3.5 0.9 5.4 -0.6 2.3-2.8 4.4-5.2 4.9 -2.7 0.4-5.3-0.6-6.9-2.9 -1.1-1.5-1.4-3.5-0.9-5.4 0.6-2.3 2.8-4.4 5.2-4.9C30.3 80.6 32.9 81.6 34.5 83.9" class="b"/><path d="M137.3 87.6c1 1.5 1.3 3.5 0.9 5.4 -0.6 2.3-2.8 4.4-5.2 4.9 -2.7 0.4-5.3-0.5-6.9-2.9 -1-1.5-1.3-3.5-0.9-5.4 0.6-2.3 2.8-4.4 5.2-4.9C133.2 84.3 135.7 85.3 137.3 87.6" class="a"/><path d="M92.6 88c1 1.5 1.3 3.5 0.9 5.4 -0.6 2.4-2.8 4.4-5.2 4.9 -2.7 0.4-5.3-0.6-6.9-2.9 -1-1.5-1.3-3.5-0.9-5.4 0.6-2.4 2.8-4.4 5.2-4.9C88.5 84.7 91.1 85.7 92.6 88" class="b"/><path d="M48 88.3c1.1 1.5 1.4 3.5 0.9 5.4 -0.6 2.3-2.8 4.4-5.2 4.9 -2.7 0.4-5.3-0.6-6.9-2.9 -1.1-1.5-1.4-3.5-0.9-5.4 0.6-2.3 2.8-4.4 5.2-4.9C43.8 85 46.4 86 48 88.3" class="b"/><path d="M150.7 92c1.1 1.5 1.4 3.5 0.9 5.4 -0.6 2.4-2.8 4.4-5.2 4.9 -2.7 0.4-5.3-0.6-6.9-2.9 -1.1-1.5-1.4-3.5-0.9-5.4 0.6-2.4 2.8-4.4 5.2-4.9C146.6 88.7 149.1 89.7 150.7 92" class="a"/><path d="M106 92.3c1 1.5 1.3 3.5 0.9 5.4 -0.6 2.3-2.8 4.4-5.2 4.9 -2.7 0.4-5.3-0.6-6.9-2.9 -1-1.5-1.4-3.5-0.9-5.4 0.6-2.3 2.8-4.4 5.2-4.9C101.9 89 104.5 90 106 92.3" class="b"/><path d="M61.4 92.7c1 1.5 1.3 3.5 0.9 5.4 -0.6 2.4-2.8 4.4-5.2 4.9 -2.7 0.4-5.3-0.6-6.9-2.9 -1-1.5-1.3-3.5-0.9-5.4 0.6-2.4 2.8-4.4 5.2-4.9C57.2 89.4 59.8 90.4 61.4 92.7" class="b"/><path d="M16.7 93c1 1.5 1.4 3.5 0.9 5.4 -0.6 2.4-2.8 4.4-5.2 4.9 -2.7 0.4-5.3-0.6-6.9-2.9 -1-1.5-1.3-3.5-0.9-5.4 0.6-2.4 2.8-4.4 5.2-4.9C12.5 89.7 15.2 90.7 16.7 93" class="b"/><path d="M119.5 96.7c1 1.5 1.3 3.5 0.9 5.4 -0.6 2.4-2.8 4.4-5.2 4.9 -2.7 0.4-5.3-0.6-6.9-2.9 -1-1.5-1.4-3.5-0.9-5.4 0.6-2.4 2.8-4.4 5.2-4.9C115.4 93.4 118 94.4 119.5 96.7" class="a"/><path d="M74.9 97c1 1.5 1.3 3.5 0.9 5.4 -0.6 2.4-2.8 4.4-5.2 4.9 -2.7 0.4-5.3-0.6-6.9-2.9 -1-1.5-1.3-3.5-0.9-5.4 0.6-2.4 2.8-4.4 5.2-4.9C70.7 93.7 73.3 94.7 74.9 97" class="a"/><path d="M30.1 97.4c1 1.5 1.3 3.5 0.9 5.4 -0.6 2.3-2.8 4.4-5.2 4.9 -2.7 0.4-5.4-0.6-6.9-2.9 -1-1.5-1.3-3.5-0.9-5.4 0.6-2.3 2.8-4.4 5.2-4.9C25.9 94.1 28.5 95.1 30.1 97.4" class="b"/><path d="M132.9 101.1c1 1.5 1.4 3.5 0.9 5.4 -0.6 2.3-2.8 4.4-5.2 4.9 -2.7 0.4-5.3-0.5-6.9-2.9 -1-1.5-1.3-3.5-0.9-5.4 0.6-2.3 2.8-4.4 5.2-4.9C128.7 97.8 131.4 98.8 132.9 101.1" class="a"/><path d="M88.2 101.4c1.1 1.5 1.4 3.5 0.9 5.4 -0.6 2.3-2.8 4.4-5.2 4.9 -2.7 0.4-5.3-0.6-6.9-2.9 -1.1-1.5-1.4-3.5-0.9-5.4 0.6-2.3 2.8-4.4 5.2-4.9C84.1 98.1 86.7 99.1 88.2 101.4" class="b"/><path d="M43.6 101.7c1 1.5 1.3 3.5 0.9 5.4 -0.6 2.4-2.8 4.4-5.2 4.9 -2.7 0.4-5.4-0.6-6.9-2.9 -1-1.5-1.3-3.5-0.9-5.4 0.6-2.4 2.8-4.4 5.2-4.9C39.4 98.4 42 99.4 43.6 101.7" class="a"/><path d="M146.4 105.5c1 1.5 1.4 3.5 0.9 5.4 -0.6 2.4-2.8 4.4-5.2 4.9 -2.7 0.4-5.3-0.6-6.9-2.9 -1-1.5-1.3-3.5-0.9-5.4 0.6-2.4 2.8-4.4 5.2-4.9C142.2 102.2 144.9 103.2 146.4 105.5" class="a"/><path d="M101.7 105.8c1.1 1.5 1.4 3.5 0.9 5.4 -0.6 2.3-2.8 4.4-5.2 4.9 -2.7 0.4-5.3-0.6-6.9-2.9 -1.1-1.5-1.4-3.5-0.9-5.4 0.6-2.3 2.8-4.4 5.2-4.9C97.6 102.5 100.2 103.5 101.7 105.8" class="b"/><path d="M57 106.1c1 1.5 1.4 3.5 0.9 5.4 -0.6 2.3-2.8 4.4-5.2 4.9 -2.7 0.4-5.3-0.5-6.9-2.9 -1.1-1.5-1.4-3.5-0.9-5.4 0.6-2.3 2.8-4.4 5.2-4.9C52.8 102.8 55.4 103.8 57 106.1" class="b"/><path d="M12.3 106.4c1 1.5 1.3 3.5 0.9 5.4 -0.6 2.3-2.8 4.4-5.2 4.9 -2.7 0.4-5.3-0.6-6.9-2.9 -1-1.5-1.4-3.5-0.9-5.4 0.6-2.3 2.8-4.4 5.2-4.9C8.2 103.1 10.7 104.1 12.3 106.4" class="b"/><path d="M115.1 110.2c1 1.5 1.3 3.5 0.9 5.4 -0.6 2.4-2.8 4.4-5.2 4.9 -2.7 0.4-5.3-0.6-6.9-2.9 -1-1.5-1.3-3.5-0.9-5.4 0.6-2.4 2.8-4.4 5.2-4.9C111 106.9 113.6 107.9 115.1 110.2" class="a"/><path d="M70.4 110.5c1 1.5 1.4 3.5 0.9 5.4 -0.6 2.4-2.8 4.4-5.2 4.9 -2.7 0.4-5.3-0.6-6.9-2.9 -1-1.5-1.3-3.5-0.9-5.4 0.6-2.4 2.8-4.4 5.2-4.9C66.3 107.2 68.9 108.2 70.4 110.5" class="b"/><path d="M128.5 114.5c1 1.5 1.3 3.5 0.9 5.4 -0.6 2.4-2.8 4.4-5.2 4.9 -2.7 0.4-5.3-0.6-6.9-2.9 -1-1.5-1.4-3.5-0.9-5.4 0.6-2.4 2.8-4.4 5.2-4.9C124.4 111.2 126.9 112.2 128.5 114.5" class="a"/><path d="M83.9 114.9c1 1.5 1.3 3.5 0.9 5.4 -0.6 2.3-2.8 4.4-5.2 4.9 -2.7 0.4-5.3-0.6-6.9-2.9 -1-1.5-1.3-3.5-0.9-5.4 0.6-2.3 2.8-4.4 5.2-4.9C79.7 111.6 82.3 112.6 83.9 114.9" class="b"/><path d="M142 118.9c1 1.5 1.3 3.5 0.9 5.4 -0.6 2.3-2.8 4.4-5.2 4.9 -2.7 0.4-5.3-0.6-6.9-2.9 -1-1.5-1.4-3.5-0.9-5.4 0.6-2.3 2.8-4.4 5.2-4.9C137.9 115.6 140.4 116.6 142 118.9" class="a"/><path d="M97.3 119.2c1 1.5 1.3 3.5 0.9 5.4 -0.6 2.4-2.8 4.4-5.2 4.9 -2.7 0.4-5.3-0.6-6.9-2.9 -1-1.5-1.3-3.5-0.9-5.4 0.6-2.4 2.8-4.4 5.2-4.9C93.2 115.9 95.8 116.9 97.3 119.2" class="b"/><path d="M110.7 123.6c1.1 1.5 1.4 3.5 0.9 5.4 -0.6 2.3-2.8 4.4-5.2 4.9 -2.7 0.4-5.3-0.6-6.9-2.9 -1.1-1.5-1.4-3.5-0.9-5.4 0.6-2.3 2.8-4.4 5.2-4.9C106.6 120.3 109.2 121.3 110.7 123.6" class="a"/><path d="M66.1 123.9c1 1.5 1.3 3.5 0.9 5.4 -0.6 2.3-2.8 4.4-5.2 4.9 -2.7 0.4-5.3-0.5-6.9-2.9 -1-1.5-1.3-3.5-0.9-5.4 0.6-2.3 2.8-4.4 5.2-4.9C61.9 120.6 64.5 121.6 66.1 123.9" class="b"/><path d="M124.2 128c1.1 1.5 1.4 3.5 0.9 5.4 -0.6 2.4-2.8 4.4-5.2 4.9 -2.7 0.4-5.3-0.6-6.9-2.9 -1.1-1.5-1.4-3.5-0.9-5.4 0.6-2.4 2.8-4.4 5.2-4.9C120.1 124.7 122.7 125.7 124.2 128" class="a"/><path d="M79.6 128.3c1 1.5 1.3 3.5 0.9 5.4 -0.6 2.4-2.8 4.4-5.2 4.9 -2.7 0.4-5.3-0.6-6.9-2.9 -1-1.5-1.4-3.5-0.9-5.4 0.6-2.3 2.8-4.4 5.2-4.9C75.4 125 78 126 79.6 128.3" class="b"/><path d="M137.6 132.4c1 1.5 1.3 3.5 0.9 5.4 -0.6 2.3-2.8 4.4-5.2 4.9 -2.7 0.4-5.3-0.5-6.9-2.9 -1-1.5-1.3-3.5-0.9-5.4 0.6-2.3 2.8-4.4 5.2-4.9C133.4 129.1 136.1 130.1 137.6 132.4" class="b"/><path d="M92.9 132.7c1 1.5 1.4 3.5 0.9 5.4 -0.6 2.3-2.8 4.4-5.2 4.9 -2.7 0.4-5.3-0.6-6.9-2.9 -1-1.5-1.3-3.5-0.9-5.4 0.6-2.3 2.8-4.4 5.2-4.9C88.8 129.4 91.4 130.4 92.9 132.7" class="b"/><path d="M106.4 137.1c1 1.5 1.4 3.5 0.9 5.4 -0.6 2.3-2.8 4.4-5.2 4.9 -2.7 0.4-5.3-0.6-6.9-2.9 -1-1.5-1.3-3.5-0.9-5.4 0.6-2.3 2.8-4.4 5.2-4.9C102.3 133.8 104.9 134.8 106.4 137.1" class="b"/><path d="M61.7 137.4c1 1.5 1.3 3.5 0.9 5.4 -0.6 2.3-2.8 4.4-5.2 4.9 -2.7 0.4-5.3-0.5-6.9-2.9 -1-1.5-1.3-3.5-0.9-5.4 0.6-2.3 2.8-4.4 5.2-4.9C57.5 134.1 60.1 135 61.7 137.4" class="b"/><path d="M75.1 141.8c1 1.5 1.3 3.5 0.9 5.4 -0.6 2.4-2.8 4.4-5.2 4.9 -2.7 0.4-5.3-0.6-6.9-2.9 -1-1.5-1.3-3.5-0.9-5.4 0.6-2.4 2.8-4.4 5.2-4.9C71 138.5 73.6 139.5 75.1 141.8" class="a"/><path d="M88.6 146.1c1 1.5 1.3 3.5 0.9 5.4 -0.6 2.3-2.8 4.4-5.2 4.9 -2.7 0.4-5.3-0.6-6.9-2.9 -1-1.5-1.4-3.5-0.9-5.4 0.6-2.3 2.8-4.4 5.2-4.9C84.4 142.8 87 143.7 88.6 146.1" class="b"/><path d="M84.2 159.6c1.1 1.5 1.4 3.5 0.9 5.4 -0.6 2.3-2.8 4.4-5.2 4.9 -2.7 0.4-5.3-0.6-6.9-2.9 -1.1-1.5-1.4-3.5-0.9-5.4 0.6-2.3 2.8-4.4 5.2-4.9C80.1 156.3 82.7 157.2 84.2 159.6" class="b"/></svg>