<?xml version="1.0" encoding="utf-8"?>
<!-- Generator: Adobe Illustrator 15.0.0, SVG Export Plug-In . SVG Version: 6.00 Build 0)  -->
<!DOCTYPE svg PUBLIC "-//W3C//DTD SVG 1.1//EN" "http://www.w3.org/Graphics/SVG/1.1/DTD/svg11.dtd">
<svg version="1.1" id="Layer_1" xmlns="http://www.w3.org/2000/svg" xmlns:xlink="http://www.w3.org/1999/xlink" x="0px" y="0px"
	 width="160.594px" height="169.949px" viewBox="0 0 160.594 169.949" enable-background="new 0 0 160.594 169.949"
	 xml:space="preserve">
<g>
	<path fill="#703895" d="M105.419,2.966c1.04,1.497,1.374,3.538,0.916,5.411c-0.625,2.332-2.831,4.415-5.205,4.913
		c-2.748,0.376-5.33-0.582-6.912-2.913c-1.041-1.499-1.331-3.541-0.875-5.413c0.625-2.332,2.832-4.371,5.205-4.872
		C101.255-0.324,103.878,0.674,105.419,2.966"/>
	<path fill="#DAE251" d="M118.827,7.378c1.041,1.5,1.332,3.539,0.874,5.414c-0.625,2.332-2.79,4.415-5.163,4.872
		c-2.749,0.416-5.33-0.583-6.913-2.874c-1.04-1.5-1.332-3.539-0.915-5.414c0.624-2.33,2.831-4.412,5.205-4.913
		C114.663,4.089,117.244,5.048,118.827,7.378"/>
	<path fill="#703895" d="M74.147,7.669c1.041,1.5,1.333,3.539,0.915,5.414c-0.624,2.333-2.83,4.414-5.204,4.872
		c-2.748,0.417-5.33-0.542-6.913-2.871c-1.04-1.501-1.331-3.541-0.873-5.414c0.624-2.333,2.79-4.415,5.163-4.872
		C69.983,4.381,72.607,5.339,74.147,7.669"/>
	<path fill="#DAE251" d="M132.318,11.793c1.039,1.456,1.332,3.539,0.873,5.37c-0.623,2.372-2.789,4.414-5.162,4.914
		c-2.748,0.374-5.329-0.584-6.912-2.914c-1.041-1.458-1.333-3.54-0.915-5.372c0.624-2.374,2.831-4.415,5.204-4.913
		C128.154,8.461,130.736,9.46,132.318,11.793"/>
	<path fill="#703895" d="M87.641,12.084c1.039,1.499,1.332,3.539,0.914,5.371c-0.623,2.376-2.83,4.413-5.203,4.915
		c-2.75,0.415-5.332-0.586-6.915-2.915c-1.041-1.46-1.332-3.498-0.874-5.373c0.624-2.373,2.79-4.412,5.163-4.913
		C83.477,8.794,86.098,9.752,87.641,12.084"/>
	<path fill="#703895" d="M42.88,12.376c1.042,1.499,1.333,3.538,0.916,5.413c-0.624,2.329-2.831,4.412-5.204,4.871
		c-2.748,0.416-5.331-0.583-6.912-2.874c-1.041-1.5-1.331-3.538-0.875-5.413c0.625-2.329,2.79-4.412,5.164-4.913
		C38.716,9.085,41.298,10.043,42.88,12.376"/>
	<path fill="#703895" d="M101.047,16.457c1.04,1.499,1.332,3.541,0.874,5.412c-0.624,2.333-2.832,4.414-5.205,4.913
		c-2.704,0.375-5.329-0.582-6.87-2.915c-1.041-1.496-1.373-3.537-0.916-5.41c0.625-2.333,2.832-4.374,5.204-4.873
		C96.883,13.167,99.464,14.167,101.047,16.457"/>
	<path fill="#DAE251" d="M56.367,16.789c1.041,1.457,1.332,3.541,0.916,5.371c-0.624,2.374-2.83,4.415-5.203,4.913
		c-2.748,0.376-5.328-0.582-6.91-2.912c-1.041-1.459-1.332-3.542-0.874-5.372c0.623-2.373,2.789-4.415,5.161-4.913
		C52.204,13.459,54.785,14.458,56.367,16.789"/>
	<path fill="#DAE251" d="M159.177,20.453c1.082,1.502,1.373,3.54,0.916,5.414c-0.625,2.333-2.831,4.412-5.204,4.913
		c-2.707,0.376-5.33-0.583-6.871-2.915c-1.082-1.499-1.375-3.538-0.916-5.413c0.623-2.333,2.832-4.371,5.205-4.872
		C155.055,17.164,157.637,18.162,159.177,20.453"/>
	<path fill="#DAE251" d="M114.413,20.786c1.041,1.458,1.374,3.541,0.916,5.373c-0.625,2.373-2.831,4.412-5.204,4.913
		c-2.749,0.375-5.331-0.583-6.913-2.916c-1.042-1.455-1.333-3.538-0.874-5.37c0.624-2.372,2.831-4.413,5.204-4.915
		C110.249,17.456,112.872,18.457,114.413,20.786"/>
	<path fill="#703895" d="M69.733,21.161c1.082,1.5,1.374,3.541,0.916,5.414c-0.623,2.331-2.831,4.415-5.205,4.872
		c-2.707,0.417-5.33-0.541-6.87-2.873c-1.083-1.501-1.374-3.54-0.916-5.414c0.624-2.33,2.831-4.412,5.204-4.873
		C65.611,17.871,68.193,18.83,69.733,21.161"/>
	<path fill="#703895" d="M127.904,25.157c1.041,1.5,1.373,3.541,0.916,5.414c-0.625,2.332-2.832,4.415-5.204,4.872
		c-2.749,0.417-5.33-0.541-6.912-2.872c-1.042-1.499-1.334-3.541-0.875-5.414c0.624-2.332,2.831-4.414,5.205-4.871
		C123.74,21.869,126.363,22.827,127.904,25.157"/>
	<path fill="#703895" d="M83.227,25.451c1.082,1.5,1.373,3.539,0.916,5.413c-0.625,2.331-2.834,4.413-5.207,4.913
		c-2.707,0.374-5.33-0.582-6.871-2.914c-1.082-1.5-1.374-3.539-0.916-5.414c0.624-2.333,2.831-4.372,5.205-4.872
		C79.102,22.16,81.686,23.16,83.227,25.451"/>
	<path fill="#703895" d="M38.592,25.867c1.041,1.498,1.332,3.539,0.874,5.412c-0.625,2.332-2.79,4.373-5.163,4.872
		c-2.748,0.418-5.371-0.583-6.911-2.872c-1.041-1.499-1.333-3.538-0.916-5.414c0.624-2.333,2.831-4.414,5.204-4.913
		C34.428,22.577,37.009,23.535,38.592,25.867"/>
	<path fill="#DAE251" d="M141.312,29.575c1.043,1.455,1.334,3.538,0.875,5.369c-0.625,2.374-2.789,4.415-5.164,4.913
		c-2.748,0.417-5.33-0.582-6.91-2.914c-1.041-1.457-1.334-3.539-0.918-5.373c0.625-2.371,2.832-4.413,5.205-4.913
		C137.146,26.283,139.73,27.239,141.312,29.575"/>
	<path fill="#703895" d="M96.633,29.863c1.041,1.5,1.331,3.541,0.916,5.414c-0.625,2.333-2.831,4.372-5.206,4.872
		c-2.745,0.416-5.327-0.582-6.911-2.874c-1.039-1.498-1.332-3.538-0.873-5.411c0.623-2.333,2.789-4.415,5.162-4.913
		C92.468,26.575,95.093,27.533,96.633,29.863"/>
	<path fill="#703895" d="M51.955,30.155c1.082,1.499,1.374,3.54,0.915,5.413c-0.624,2.332-2.83,4.415-5.203,4.872
		c-2.748,0.417-5.328-0.541-6.868-2.874c-1.083-1.497-1.375-3.539-0.916-5.411c0.624-2.332,2.831-4.415,5.204-4.872
		C47.792,26.867,50.415,27.824,51.955,30.155"/>
	<path fill="#DAE251" d="M154.805,33.946c1.043,1.497,1.332,3.538,0.875,5.413c-0.625,2.331-2.789,4.413-5.164,4.911
		c-2.748,0.376-5.33-0.583-6.912-2.913c-1.041-1.5-1.332-3.54-0.916-5.414c0.625-2.332,2.832-4.414,5.205-4.871
		C150.641,30.655,153.223,31.654,154.805,33.946"/>
	<path fill="#DAE251" d="M110.125,34.278c1.04,1.459,1.331,3.498,0.915,5.371c-0.625,2.373-2.831,4.414-5.205,4.912
		c-2.748,0.375-5.33-0.58-6.912-2.913c-1.042-1.499-1.333-3.54-0.875-5.372c0.626-2.373,2.79-4.412,5.164-4.913
		C105.96,30.947,108.584,31.946,110.125,34.278"/>
	<path fill="#703895" d="M65.444,34.569c1.042,1.458,1.374,3.539,0.917,5.373c-0.625,2.373-2.833,4.412-5.205,4.911
		c-2.749,0.418-5.331-0.583-6.871-2.913c-1.081-1.459-1.372-3.541-0.916-5.371c0.625-2.373,2.832-4.414,5.205-4.915
		C61.279,31.279,63.903,32.236,65.444,34.569"/>
	<path fill="#DAE251" d="M123.532,38.65c1.041,1.499,1.333,3.54,0.874,5.413c-0.624,2.332-2.831,4.413-5.204,4.872
		c-2.707,0.416-5.33-0.541-6.871-2.874c-1.041-1.5-1.374-3.538-0.916-5.411c0.624-2.333,2.832-4.415,5.204-4.873
		C119.368,35.361,121.95,36.319,123.532,38.65"/>
	<path fill="#DAE251" d="M78.852,38.94c1.04,1.5,1.333,3.541,0.874,5.414c-0.624,2.333-2.789,4.415-5.163,4.913
		c-2.747,0.376-5.33-0.582-6.911-2.914c-1.042-1.5-1.334-3.54-0.917-5.412c0.625-2.333,2.831-4.414,5.206-4.872
		C74.689,35.652,77.27,36.651,78.852,38.94"/>
	<path fill="#DAE251" d="M137.021,42.939c1.041,1.499,1.334,3.538,0.875,5.411c-0.625,2.333-2.83,4.417-5.203,4.915
		c-2.707,0.376-5.33-0.582-6.871-2.915c-1.04-1.499-1.374-3.538-0.916-5.414c0.625-2.329,2.832-4.412,5.205-4.871
		C132.859,39.649,135.439,40.65,137.021,42.939"/>
	<path fill="#703895" d="M92.343,43.355c1.044,1.498,1.334,3.539,0.878,5.414c-0.625,2.33-2.791,4.372-5.164,4.872
		c-2.75,0.417-5.33-0.584-6.914-2.874c-1.042-1.5-1.332-3.541-0.917-5.413c0.625-2.331,2.833-4.413,5.206-4.914
		C88.182,40.065,90.764,41.023,92.343,43.355"/>
	<path fill="#703895" d="M47.584,43.647c1.041,1.499,1.333,3.538,0.874,5.414c-0.624,2.332-2.789,4.412-5.162,4.871
		c-2.747,0.416-5.371-0.541-6.912-2.874c-1.04-1.499-1.332-3.538-0.915-5.414c0.624-2.33,2.83-4.412,5.205-4.87
		C43.421,40.358,46.002,41.314,47.584,43.647"/>
	<path fill="#703895" d="M150.391,47.354c1.041,1.497,1.375,3.538,0.916,5.413c-0.623,2.33-2.832,4.371-5.205,4.87
		c-2.748,0.417-5.33-0.583-6.912-2.872c-1.041-1.5-1.332-3.541-0.875-5.414c0.625-2.332,2.832-4.415,5.205-4.913
		C146.227,44.063,148.85,45.021,150.391,47.354"/>
	<path fill="#703895" d="M105.71,47.644c1.083,1.498,1.374,3.54,0.916,5.413c-0.624,2.332-2.831,4.413-5.205,4.871
		c-2.706,0.419-5.328-0.541-6.869-2.872c-1.084-1.499-1.375-3.54-0.918-5.413c0.625-2.333,2.834-4.415,5.206-4.873
		C101.587,44.354,104.169,45.312,105.71,47.644"/>
	<path fill="#703895" d="M61.072,48.061c1.041,1.456,1.332,3.539,0.875,5.37c-0.625,2.374-2.831,4.415-5.164,4.916
		c-2.747,0.414-5.369-0.585-6.909-2.917c-1.042-1.457-1.332-3.539-0.917-5.371c0.624-2.373,2.831-4.415,5.203-4.913
		C56.909,44.77,59.49,45.729,61.072,48.061"/>
	<path fill="#DAE251" d="M119.119,52.057c1.04,1.459,1.332,3.541,0.915,5.373c-0.624,2.373-2.831,4.412-5.205,4.913
		c-2.748,0.416-5.329-0.582-6.912-2.916c-1.041-1.457-1.332-3.538-0.874-5.369c0.625-2.376,2.79-4.415,5.163-4.916
		C114.955,48.769,117.578,49.725,119.119,52.057"/>
	<path fill="#703895" d="M74.438,52.349c1.042,1.499,1.375,3.54,0.917,5.413c-0.625,2.332-2.831,4.372-5.206,4.873
		c-2.747,0.416-5.33-0.584-6.912-2.873c-1.041-1.499-1.332-3.541-0.875-5.414c0.626-2.332,2.832-4.414,5.206-4.915
		C70.275,49.061,72.897,50.018,74.438,52.349"/>
	<path fill="#DAE251" d="M132.609,56.431c1.041,1.497,1.332,3.538,0.914,5.411c-0.623,2.332-2.83,4.415-5.203,4.916
		c-2.748,0.372-5.329-0.585-6.912-2.916c-1.04-1.499-1.332-3.54-0.873-5.413c0.624-2.332,2.789-4.415,5.162-4.872
		C128.445,53.141,131.068,54.14,132.609,56.431"/>
	<path fill="#703895" d="M87.932,56.763c1.041,1.457,1.373,3.498,0.916,5.371c-0.625,2.373-2.832,4.414-5.205,4.914
		c-2.75,0.374-5.332-0.584-6.914-2.914c-1.041-1.499-1.333-3.541-0.874-5.373c0.624-2.374,2.831-4.413,5.206-4.913
		C83.768,53.431,86.391,54.43,87.932,56.763"/>
	<path fill="#703895" d="M43.296,57.054c1.042,1.459,1.333,3.539,0.875,5.373c-0.625,2.374-2.831,4.413-5.205,4.913
		c-2.707,0.416-5.33-0.582-6.87-2.915c-1.04-1.458-1.374-3.539-0.915-5.372c0.624-2.374,2.83-4.413,5.203-4.913
		C39.133,53.766,41.714,54.722,43.296,57.054"/>
	<path fill="#DAE251" d="M146.02,60.844c1.041,1.499,1.332,3.54,0.873,5.413c-0.623,2.332-2.832,4.371-5.205,4.872
		c-2.707,0.416-5.33-0.583-6.869-2.874c-1.041-1.497-1.375-3.539-0.918-5.414c0.625-2.33,2.832-4.412,5.207-4.913
		C141.854,57.555,144.436,58.513,146.02,60.844"/>
	<path fill="#703895" d="M101.338,61.137c1.041,1.498,1.332,3.538,0.875,5.411c-0.626,2.333-2.79,4.415-5.164,4.872
		c-2.749,0.417-5.328-0.542-6.91-2.874c-1.041-1.498-1.334-3.539-0.916-5.411c0.623-2.333,2.829-4.415,5.204-4.872
		C97.173,57.846,99.756,58.805,101.338,61.137"/>
	<path fill="#703895" d="M56.659,61.426c1.04,1.499,1.332,3.541,0.915,5.414c-0.624,2.332-2.83,4.414-5.204,4.913
		c-2.747,0.375-5.327-0.583-6.909-2.916c-1.04-1.497-1.332-3.538-0.874-5.411c0.625-2.332,2.83-4.415,5.203-4.872
		C52.496,58.137,55.118,59.137,56.659,61.426"/>
	<path fill="#DAE251" d="M159.512,65.133c1.038,1.499,1.331,3.538,0.872,5.413c-0.625,2.333-2.832,4.413-5.204,4.873
		c-2.707,0.416-5.33-0.542-6.871-2.874c-1.041-1.501-1.373-3.539-0.914-5.415c0.623-2.329,2.83-4.412,5.203-4.869
		C155.346,61.842,157.927,62.8,159.512,65.133"/>
	<path fill="#DAE251" d="M114.829,65.549c1.042,1.457,1.333,3.538,0.876,5.373c-0.626,2.371-2.791,4.413-5.165,4.913
		c-2.747,0.417-5.33-0.583-6.911-2.915c-1.042-1.459-1.333-3.541-0.917-5.372c0.625-2.374,2.832-4.413,5.205-4.913
		C110.665,62.261,113.247,63.217,114.829,65.549"/>
	<path fill="#703895" d="M70.149,65.841c1.042,1.499,1.333,3.538,0.917,5.413c-0.625,2.332-2.832,4.371-5.206,4.872
		c-2.748,0.416-5.329-0.583-6.912-2.874c-1.041-1.499-1.332-3.538-0.875-5.414c0.625-2.33,2.791-4.412,5.164-4.913
		C65.986,62.552,68.609,63.508,70.149,65.841"/>
	<path fill="#703895" d="M25.394,66.131c1.041,1.5,1.332,3.541,0.915,5.414c-0.624,2.333-2.831,4.415-5.204,4.873
		c-2.749,0.416-5.33-0.542-6.913-2.874c-1.04-1.498-1.332-3.539-0.874-5.412c0.624-2.333,2.789-4.414,5.163-4.872
		C21.23,62.841,23.811,63.799,25.394,66.131"/>
	<path fill="#DAE251" d="M128.195,69.838c1.082,1.498,1.375,3.54,0.916,5.414c-0.625,2.33-2.83,4.372-5.205,4.87
		c-2.706,0.419-5.329-0.582-6.87-2.872c-1.082-1.499-1.374-3.54-0.916-5.413c0.625-2.331,2.831-4.415,5.205-4.913
		C124.074,66.548,126.654,67.506,128.195,69.838"/>
	<path fill="#703895" d="M83.559,70.255c1.041,1.456,1.332,3.497,0.875,5.37c-0.625,2.374-2.832,4.415-5.207,4.916
		c-2.706,0.373-5.33-0.585-6.871-2.917c-1.04-1.498-1.373-3.539-0.915-5.371c0.624-2.373,2.831-4.415,5.205-4.913
		C79.393,66.924,81.977,67.923,83.559,70.255"/>
	<path fill="#703895" d="M38.882,70.546c1.042,1.457,1.333,3.539,0.917,5.371c-0.625,2.373-2.831,4.415-5.205,4.913
		c-2.748,0.419-5.328-0.582-6.91-2.913c-1.041-1.459-1.333-3.541-0.875-5.372c0.625-2.374,2.79-4.413,5.162-4.914
		C34.719,67.256,37.3,68.214,38.882,70.546"/>
	<path fill="#703895" d="M141.688,74.253c1.084,1.457,1.375,3.495,0.918,5.371c-0.627,2.373-2.832,4.415-5.207,4.912
		c-2.705,0.375-5.33-0.582-6.869-2.914c-1.084-1.5-1.375-3.539-0.918-5.37c0.627-2.374,2.832-4.415,5.207-4.916
		C137.564,70.922,140.146,71.921,141.688,74.253"/>
	<path fill="#DAE251" d="M97.049,74.542c1.041,1.459,1.333,3.541,0.874,5.373c-0.625,2.373-2.83,4.414-5.205,4.912
		c-2.704,0.418-5.329-0.582-6.87-2.914c-1.039-1.457-1.373-3.538-0.914-5.371c0.625-2.373,2.83-4.414,5.205-4.913
		C92.887,71.254,95.466,72.212,97.049,74.542"/>
	<path fill="#DAE251" d="M52.287,74.918c1.042,1.5,1.333,3.541,0.875,5.414c-0.624,2.332-2.831,4.413-5.203,4.913
		c-2.706,0.375-5.329-0.584-6.87-2.916c-1.04-1.499-1.373-3.538-0.915-5.411c0.625-2.333,2.831-4.415,5.204-4.872
		C48.126,71.629,50.706,72.628,52.287,74.918"/>
	<path fill="#703895" d="M155.096,78.625c1.041,1.497,1.334,3.538,0.918,5.414c-0.625,2.328-2.832,4.411-5.207,4.87
		c-2.748,0.415-5.328-0.541-6.912-2.874c-1.041-1.499-1.332-3.537-0.873-5.412c0.623-2.333,2.789-4.415,5.164-4.872
		C150.932,75.335,153.557,76.292,155.096,78.625"/>
	<path fill="#703895" d="M110.415,78.917c1.041,1.5,1.374,3.539,0.916,5.413c-0.624,2.33-2.831,4.412-5.204,4.912
		c-2.748,0.376-5.33-0.582-6.913-2.914c-1.041-1.5-1.333-3.538-0.875-5.413c0.626-2.333,2.833-4.412,5.206-4.872
		C106.252,75.625,108.875,76.625,110.415,78.917"/>
	<path fill="#DAE251" d="M65.736,79.249c1.082,1.459,1.374,3.497,0.916,5.37c-0.624,2.375-2.831,4.414-5.205,4.915
		c-2.706,0.375-5.329-0.582-6.87-2.916c-1.042-1.499-1.373-3.537-0.916-5.368c0.624-2.376,2.831-4.415,5.204-4.916
		C61.614,75.917,64.195,76.918,65.736,79.249"/>
	<path fill="#DAE251" d="M21.105,79.625c1.04,1.499,1.332,3.537,0.874,5.412c-0.625,2.331-2.79,4.413-5.163,4.872
		c-2.749,0.417-5.372-0.544-6.913-2.874c-1.041-1.499-1.332-3.537-0.916-5.412c0.625-2.33,2.831-4.413,5.205-4.872
		C16.94,76.333,19.522,77.292,21.105,79.625"/>
	<path fill="#703895" d="M123.823,83.328c1.042,1.5,1.334,3.541,0.875,5.414c-0.624,2.333-2.79,4.374-5.163,4.873
		c-2.748,0.417-5.331-0.583-6.913-2.875c-1.041-1.498-1.332-3.538-0.916-5.41c0.625-2.334,2.832-4.415,5.205-4.913
		C119.66,80.041,122.241,80.999,123.823,83.328"/>
	<path fill="#DAE251" d="M79.144,83.621c1.041,1.498,1.332,3.539,0.916,5.412c-0.624,2.332-2.832,4.415-5.204,4.873
		c-2.749,0.417-5.33-0.542-6.913-2.873c-1.041-1.499-1.333-3.537-0.875-5.412c0.624-2.332,2.79-4.415,5.164-4.872
		C74.98,80.333,77.603,81.29,79.144,83.621"/>
	<path fill="#DAE251" d="M34.469,83.914c1.083,1.5,1.375,3.538,0.916,5.411c-0.624,2.332-2.831,4.415-5.203,4.914
		c-2.748,0.375-5.33-0.583-6.871-2.914c-1.082-1.5-1.374-3.541-0.916-5.414c0.625-2.333,2.832-4.413,5.205-4.871
		C30.307,80.624,32.929,81.623,34.469,83.914"/>
	<path fill="#703895" d="M137.314,87.617c1.041,1.5,1.332,3.541,0.873,5.414c-0.623,2.334-2.789,4.414-5.162,4.871
		c-2.748,0.418-5.33-0.541-6.912-2.873c-1.041-1.498-1.331-3.539-0.915-5.412c0.624-2.332,2.831-4.415,5.204-4.872
		C133.15,84.33,135.732,85.289,137.314,87.617"/>
	<path fill="#DAE251" d="M92.637,88.034c1.04,1.458,1.331,3.54,0.915,5.372c-0.625,2.373-2.831,4.414-5.204,4.914
		c-2.748,0.416-5.33-0.584-6.914-2.916c-1.041-1.455-1.333-3.539-0.874-5.373c0.624-2.371,2.792-4.411,5.165-4.913
		C88.473,84.746,91.096,85.702,92.637,88.034"/>
	<path fill="#DAE251" d="M47.959,88.324c1.083,1.5,1.373,3.541,0.917,5.415c-0.626,2.333-2.832,4.37-5.205,4.87
		c-2.748,0.416-5.33-0.58-6.87-2.869c-1.082-1.502-1.374-3.542-0.916-5.415c0.624-2.333,2.831-4.415,5.204-4.912
		C43.796,85.037,46.419,85.993,47.959,88.324"/>
	<path fill="#703895" d="M150.684,92.031c1.082,1.457,1.373,3.539,0.914,5.371c-0.623,2.373-2.83,4.414-5.205,4.914
		c-2.705,0.418-5.328-0.584-6.869-2.914c-1.082-1.459-1.375-3.539-0.916-5.371c0.623-2.375,2.832-4.414,5.205-4.914
		C146.561,88.741,149.143,89.699,150.684,92.031"/>
	<path fill="#DAE251" d="M106.044,92.323c1.04,1.5,1.332,3.54,0.874,5.413c-0.625,2.332-2.832,4.371-5.205,4.871
		c-2.707,0.418-5.329-0.582-6.87-2.873c-1.041-1.5-1.375-3.537-0.916-5.412c0.625-2.334,2.831-4.414,5.204-4.914
		C101.879,89.032,104.46,89.991,106.044,92.323"/>
	<path fill="#DAE251" d="M61.364,92.739c1.04,1.458,1.332,3.499,0.874,5.37c-0.624,2.373-2.79,4.416-5.163,4.916
		c-2.747,0.375-5.329-0.586-6.91-2.914c-1.04-1.502-1.333-3.541-0.874-5.372c0.624-2.375,2.789-4.414,5.162-4.915
		C57.2,89.408,59.781,90.407,61.364,92.739"/>
	<path fill="#DAE251" d="M16.69,93.031c1.041,1.459,1.375,3.539,0.916,5.373c-0.624,2.371-2.831,4.412-5.204,4.912
		c-2.749,0.416-5.331-0.582-6.913-2.916c-1.041-1.457-1.332-3.539-0.874-5.371c0.625-2.375,2.831-4.413,5.205-4.914
		C12.527,89.742,15.15,90.698,16.69,93.031"/>
	<path fill="#703895" d="M119.535,96.738c1.041,1.457,1.332,3.496,0.875,5.369c-0.626,2.375-2.832,4.414-5.206,4.912
		c-2.706,0.377-5.33-0.58-6.87-2.914c-1.041-1.498-1.374-3.537-0.916-5.369c0.624-2.373,2.831-4.414,5.204-4.913
		C115.37,93.406,117.952,94.406,119.535,96.738"/>
	<path fill="#703895" d="M74.856,97.029c1.04,1.457,1.331,3.539,0.874,5.369c-0.625,2.375-2.791,4.416-5.164,4.914
		c-2.748,0.416-5.329-0.582-6.912-2.914c-1.041-1.459-1.332-3.539-0.917-5.373c0.625-2.373,2.832-4.412,5.206-4.91
		C70.691,93.739,73.273,94.697,74.856,97.029"/>
	<path fill="#DAE251" d="M30.098,97.402c1.041,1.5,1.332,3.539,0.874,5.414c-0.623,2.332-2.789,4.414-5.162,4.912
		c-2.748,0.375-5.371-0.582-6.912-2.912c-1.041-1.5-1.333-3.541-0.917-5.414c0.625-2.332,2.832-4.413,5.205-4.871
		C25.935,94.115,28.517,95.114,30.098,97.402"/>
	<path fill="#703895" d="M132.9,101.111c1.041,1.496,1.373,3.537,0.916,5.41c-0.625,2.332-2.83,4.416-5.205,4.873
		c-2.748,0.416-5.329-0.541-6.911-2.875c-1.04-1.5-1.332-3.537-0.874-5.414c0.625-2.33,2.831-4.41,5.205-4.871
		C128.736,97.82,131.361,98.775,132.9,101.111"/>
	<path fill="#DAE251" d="M88.223,101.4c1.082,1.5,1.375,3.539,0.916,5.414c-0.625,2.332-2.832,4.412-5.205,4.912
		c-2.707,0.375-5.332-0.584-6.872-2.916c-1.082-1.498-1.374-3.537-0.916-5.41c0.624-2.332,2.831-4.414,5.206-4.871
		C84.1,98.109,86.682,99.109,88.223,101.4"/>
	<path fill="#703895" d="M43.588,101.732c1.041,1.459,1.331,3.496,0.875,5.373c-0.625,2.373-2.79,4.412-5.164,4.912
		c-2.749,0.375-5.371-0.582-6.911-2.914c-1.041-1.5-1.332-3.539-0.917-5.371c0.625-2.373,2.832-4.416,5.205-4.912
		C39.424,98.404,42.006,99.402,43.588,101.732"/>
	<path fill="#703895" d="M146.393,105.523c1.043,1.457,1.375,3.539,0.918,5.371c-0.625,2.373-2.832,4.414-5.205,4.912
		c-2.748,0.418-5.332-0.582-6.912-2.914c-1.041-1.457-1.334-3.539-0.875-5.371c0.625-2.373,2.83-4.416,5.205-4.914
		C142.229,102.232,144.854,103.191,146.393,105.523"/>
	<path fill="#DAE251" d="M101.713,105.814c1.083,1.498,1.374,3.539,0.916,5.412c-0.625,2.332-2.832,4.375-5.205,4.873
		c-2.706,0.414-5.328-0.584-6.869-2.873c-1.084-1.5-1.375-3.539-0.916-5.414c0.625-2.332,2.829-4.412,5.204-4.912
		C97.59,102.525,100.172,103.482,101.713,105.814"/>
	<path fill="#DAE251" d="M56.95,106.107c1.041,1.496,1.374,3.537,0.916,5.41c-0.624,2.332-2.831,4.416-5.204,4.871
		c-2.747,0.42-5.328-0.539-6.868-2.871c-1.082-1.5-1.373-3.541-0.916-5.414c0.624-2.332,2.83-4.414,5.204-4.871
		C52.787,102.816,55.409,103.773,56.95,106.107"/>
	<path fill="#DAE251" d="M12.318,106.396c1.042,1.5,1.333,3.539,0.875,5.414c-0.625,2.332-2.832,4.414-5.205,4.914
		c-2.707,0.373-5.33-0.582-6.871-2.914c-1.041-1.5-1.374-3.541-0.916-5.414c0.624-2.332,2.832-4.416,5.205-4.873
		C8.154,103.105,10.736,104.105,12.318,106.396"/>
	<path fill="#703895" d="M115.121,110.227c1.041,1.459,1.332,3.5,0.916,5.375c-0.625,2.373-2.831,4.412-5.205,4.912
		c-2.748,0.375-5.33-0.582-6.912-2.916c-1.041-1.498-1.333-3.537-0.875-5.369c0.625-2.373,2.79-4.414,5.164-4.914
		C110.957,106.896,113.58,107.896,115.121,110.227"/>
	<path fill="#DAE251" d="M70.441,110.521c1.041,1.455,1.375,3.537,0.916,5.369c-0.625,2.375-2.831,4.414-5.205,4.912
		c-2.748,0.418-5.33-0.58-6.912-2.912c-1.041-1.457-1.333-3.539-0.875-5.371c0.625-2.375,2.833-4.416,5.206-4.916
		C66.277,107.23,68.901,108.188,70.441,110.521"/>
	<path fill="#703895" d="M128.529,114.52c1.041,1.457,1.332,3.539,0.873,5.367c-0.623,2.377-2.83,4.416-5.204,4.916
		c-2.707,0.418-5.33-0.582-6.871-2.914c-1.041-1.459-1.373-3.541-0.916-5.373c0.625-2.373,2.832-4.412,5.206-4.912
		C124.365,111.227,126.947,112.186,128.529,114.52"/>
	<path fill="#DAE251" d="M83.85,114.895c1.041,1.496,1.332,3.537,0.875,5.412c-0.625,2.33-2.791,4.411-5.165,4.914
		c-2.748,0.373-5.329-0.584-6.912-2.916c-1.041-1.5-1.332-3.539-0.916-5.414c0.624-2.33,2.831-4.414,5.205-4.873
		C79.685,111.604,82.268,112.602,83.85,114.895"/>
	<path fill="#703895" d="M142.021,118.891c1.041,1.498,1.332,3.539,0.873,5.412c-0.623,2.332-2.83,4.414-5.203,4.914
		c-2.707,0.374-5.33-0.583-6.871-2.914c-1.041-1.5-1.375-3.542-0.916-5.414c0.625-2.332,2.832-4.414,5.205-4.871
		C137.855,115.602,140.438,116.6,142.021,118.891"/>
	<path fill="#DAE251" d="M97.341,119.223c1.041,1.457,1.333,3.5,0.874,5.371c-0.625,2.374-2.79,4.415-5.163,4.914
		c-2.747,0.375-5.329-0.583-6.911-2.914c-1.041-1.5-1.332-3.539-0.916-5.373c0.623-2.373,2.832-4.412,5.205-4.912
		C93.177,115.893,95.758,116.891,97.341,119.223"/>
	<path fill="#703895" d="M110.707,123.596c1.082,1.498,1.374,3.538,0.916,5.413c-0.624,2.333-2.832,4.412-5.205,4.871
		c-2.706,0.417-5.329-0.581-6.871-2.874c-1.082-1.498-1.374-3.538-0.915-5.412c0.624-2.33,2.831-4.414,5.205-4.871
		C106.585,120.307,109.166,121.264,110.707,123.596"/>
	<path fill="#DAE251" d="M66.069,123.886c1.041,1.5,1.333,3.54,0.874,5.414c-0.625,2.332-2.831,4.414-5.205,4.872
		c-2.706,0.416-5.329-0.541-6.869-2.872c-1.041-1.502-1.334-3.54-0.916-5.414c0.624-2.331,2.83-4.413,5.204-4.872
		C61.905,120.6,64.487,121.598,66.069,123.886"/>
	<path fill="#703895" d="M124.198,128.009c1.083,1.457,1.374,3.539,0.917,5.371c-0.625,2.374-2.832,4.414-5.205,4.916
		c-2.707,0.373-5.331-0.585-6.871-2.918c-1.083-1.457-1.375-3.538-0.916-5.37c0.624-2.374,2.832-4.414,5.204-4.914
		C120.076,124.718,122.657,125.677,124.198,128.009"/>
	<path fill="#DAE251" d="M79.56,128.302c1.042,1.496,1.333,3.538,0.875,5.369c-0.624,2.374-2.832,4.415-5.206,4.915
		c-2.705,0.416-5.329-0.585-6.87-2.915c-1.041-1.459-1.374-3.497-0.916-5.373c0.624-2.33,2.832-4.412,5.205-4.912
		C75.396,125.011,77.978,125.969,79.56,128.302"/>
	<path fill="#DAE251" d="M137.605,132.382c1.041,1.498,1.332,3.538,0.916,5.412c-0.625,2.332-2.832,4.416-5.205,4.872
		c-2.748,0.417-5.328-0.541-6.91-2.874c-1.041-1.496-1.334-3.538-0.875-5.414c0.623-2.328,2.789-4.412,5.162-4.87
		C133.441,129.092,136.064,130.093,137.605,132.382"/>
	<path fill="#DAE251" d="M92.927,132.672c1.041,1.5,1.373,3.54,0.916,5.414c-0.622,2.333-2.831,4.412-5.204,4.913
		c-2.748,0.375-5.33-0.582-6.912-2.912c-1.042-1.501-1.333-3.542-0.875-5.414c0.625-2.333,2.832-4.375,5.205-4.875
		C88.764,129.385,91.387,130.383,92.927,132.672"/>
	<path fill="#DAE251" d="M106.418,137.086c1.041,1.5,1.375,3.54,0.916,5.412c-0.624,2.333-2.831,4.414-5.204,4.875
		c-2.749,0.413-5.331-0.585-6.912-2.874c-1.041-1.5-1.331-3.539-0.875-5.414c0.625-2.333,2.83-4.412,5.204-4.913
		C102.254,133.797,104.878,134.754,106.418,137.086"/>
	<path fill="#DAE251" d="M61.654,137.379c1.042,1.496,1.334,3.54,0.917,5.414c-0.624,2.328-2.831,4.414-5.205,4.87
		c-2.747,0.417-5.328-0.541-6.91-2.874c-1.041-1.498-1.331-3.538-0.875-5.412c0.626-2.332,2.832-4.414,5.204-4.872
		C57.491,134.088,60.114,135.046,61.654,137.379"/>
	<path fill="#703895" d="M75.146,141.793c1.041,1.498,1.333,3.538,0.916,5.37c-0.625,2.374-2.831,4.412-5.204,4.916
		c-2.749,0.413-5.33-0.585-6.913-2.917c-1.042-1.457-1.332-3.499-0.874-5.371c0.625-2.374,2.789-4.414,5.163-4.916
		C70.983,138.502,73.606,139.46,75.146,141.793"/>
	<path fill="#DAE251" d="M88.555,146.08c1.043,1.5,1.334,3.54,0.877,5.414c-0.627,2.333-2.834,4.414-5.207,4.872
		c-2.707,0.416-5.331-0.583-6.872-2.872c-1.041-1.5-1.373-3.542-0.916-5.414c0.625-2.332,2.832-4.414,5.206-4.912
		C84.393,142.793,86.973,143.749,88.555,146.08"/>
	<path fill="#DAE251" d="M84.225,159.573c1.082,1.497,1.375,3.538,0.916,5.411c-0.625,2.332-2.832,4.414-5.206,4.871
		c-2.707,0.418-5.329-0.58-6.87-2.873c-1.083-1.496-1.375-3.537-0.917-5.409c0.625-2.333,2.832-4.416,5.205-4.916
		C80.101,156.282,82.684,157.24,84.225,159.573"/>
</g>
</svg>
